<?xml version="1.0" encoding="utf-8"?>
<!-- Generator: Adobe Illustrator 21.1.0, SVG Export Plug-In . SVG Version: 6.00 Build 0)  -->
<svg version="1.1" id="Layer_1" xmlns="http://www.w3.org/2000/svg" xmlns:xlink="http://www.w3.org/1999/xlink" x="0px" y="0px"
	 viewBox="0 0 800 600" style="enable-background:new 0 0 800 600;" xml:space="preserve">
<style type="text/css">
	.st0{fill:#888988;}
</style>
<path class="st0" d="M103.9,227.3c0-37.3,0-74.6,0-112c0-33.2-2.4-65.6,22.7-90.9c26.3-26.5,63.7-22,98.1-22
	c38.4,0,76.9,0.1,115.3,0.1c79.1,0,158.2,0,237.4,0c34.5,0,74-5.7,100.9,20.5c26.3,25.6,24,58.2,24,92.2c0,72.5,0,145,0,217.5
	c0,17.5,0,34.9,0,52.4c0,17.3,1.8,35.8-4.5,52.3c-12.7,33.8-41.8,50.2-77,51c-36.3,0.8-72.6-0.4-108.9,0c-14.9,0.2-35.3-4-49.7-0.4
	c-15.6,3.8-33,23-45.6,32.4c-30.4,22.8-60.5,46.1-91.4,68.3c-8.7,6.3-22.4,18.3-31.5,5.6c-2.5-12.2-2.7-37.4-2.7-49.7
	c0-10.6,0-21.1,0.1-31.7c0-5,1.5-16.7-1.3-24.3c-4.6-3.5-22.6-0.2-28.8-0.2c-10.7,0-21.3-0.5-32-0.3c-37,0.5-76.8,5.7-104.5-24.2
	c-27.9-30.1-20.4-74.7-20.4-112.5C103.9,310.1,103.9,268.7,103.9,227.3z M328.7,538.4C330.3,537.1,328,539.2,328.7,538.4z
	 M393.8,489.9c13.5-7.5,26.1-19.1,38.4-28.4c13.9-10.4,22.2-10.4,39.2-10.7c33.2-0.5,66.4-0.2,99.6-0.2c24.5,0,59.9,5.1,79.2-14.5
	c18.8-19,13.8-54.6,13.8-78.5c0-67.3,2.7-135.1,0.2-202.4c-1-28.2,7.7-66.1-3.1-92.7c-11.3-27.6-43.9-22.2-67.9-22.2
	c-132.9,0-265.7,0-398.6,0c-29,0-50.9,7.4-52.5,40c-1.6,33.1,0.1,66.4,0.1,99.5c0,66.4-1.5,133,0,199.4c0.6,27.3-5.4,64.2,30.4,70.7
	c16.9,3.1,35.9,0.6,53,1c18.7,0.4,37.5-0.3,56.3-0.3c9.2,0,18.5,0.1,27.7,0.2c2.4,0,9.6-0.8,12.4,0.1c7.1,2.4,6.2-0.3,6.3,9.3
	c0.2,18.9,0.2,37.8,0.1,56.7c0,3.6-2.4,18.6,2.2,20.2c3,1,17-12.2,19.4-14C364.5,511.9,379.8,501.7,393.8,489.9z"/>
<path class="st0" d="M232.4,264.1c-22.2-31.4,22.8-65.5,44.2-34.4C296.6,258.7,257,286.1,232.4,264.1z"/>
<path class="st0" d="M573.7,264.1c-25.7,23.5-66.1-8.8-42.7-36.8C554.5,199.1,594.4,234.8,573.7,264.1z"/>
<path class="st0" d="M424.5,263.9c-26.1,23.4-66.6-8.8-42.8-36.6C405.4,199.5,444.7,234.4,424.5,263.9z"/>
</svg>
