<?xml version="1.0" encoding="utf-8"?>
<!-- Generator: Adobe Illustrator 21.1.0, SVG Export Plug-In . SVG Version: 6.00 Build 0)  -->
<svg version="1.1" xmlns="http://www.w3.org/2000/svg" xmlns:xlink="http://www.w3.org/1999/xlink" x="0px" y="0px"
	 viewBox="0 0 1366 768" style="enable-background:new 0 0 1366 768;" xml:space="preserve">
<style type="text/css">
	.st0{display:none;}
	.st1{display:inline;}
	.st2{fill:#FEFEFE;}
	.st3{fill:#F3F3F3;}
	.st4{fill:#82C920;}
	.st5{fill:#888988;}
</style>
<g id="Layer_1" class="st0">
	<g id="bzGLb1.tif" class="st1">
		<g>
			<path class="st2" d="M936,599c0,4.7-0.1,9.3,0.1,14c0.1,1.7-0.3,2.4-2,2c-0.8-0.2-1.7,0-2.5,0c-165.4,0-330.7,0-496.1,0.1
				c-3.8,0-4.6-1-4.6-4.6c0.2-12.8,0.1-25.6,0.1-38.5c0.7,0,1.3,0,2,0c0,7.5,0.1,14.9-0.1,22.4c-0.1,3.3,0.7,4.9,4.4,4.7
				c6.1-0.3,12.3-0.3,18.4,0c3.7,0.2,4.4-1.4,4.4-4.7c-0.2-7.5-0.1-14.9-0.1-22.4c9,0,18,0,27,0c0,7.3,0.2,14.6-0.1,21.9
				c-0.1,4,1.4,5.3,5.3,5.1c6.1-0.2,12.3-0.2,18.4,0c3.7,0.2,4.5-1.3,4.4-4.7c-0.2-7.5-0.1-14.9-0.1-22.4c9,0,18,0,27,0
				c0,7.5,0.1,14.9-0.1,22.4c-0.1,3.3,0.8,4.8,4.4,4.7c6.1-0.3,12.3-0.2,18.4,0c3.8,0.1,5.4-1.2,5.3-5.1c-0.2-7.3-0.1-14.6-0.1-21.9
				c8.9,0,17.9,0,26.8,0c0.1,4.8,0.1,9.5,0.2,14.3c0.1,11,5.5,14.9,15.9,11.5c8.1,3.7,11.3,1.8,11-6.7c0-0.5-0.1-1-0.1-1.5
				c18.1-13.5,36.1-27.1,54.2-40.6c1.5,1.3,0.9,3.1,0.9,4.7c0.1,6.1,0,12.2,0,18.3c-7.6,0-15.3,0.1-22.9,0c-2.9-0.1-4.2,0.7-4.1,3.9
				c0.2,6.5,0.1,13,0,19.4c-0.1,2.8,1,3.8,3.8,3.8c6.3-0.1,12.6-0.2,18.9,0c3.7,0.2,4.5-1.3,4.4-4.7c-0.2-7.5-0.1-14.9-0.1-22.4
				c9,0,18,0,27,0c0,7.5,0.1,14.9-0.1,22.4c-0.1,3.3,0.7,4.8,4.4,4.7c6.5-0.3,12.9-0.3,19.4,0c3.7,0.2,4.4-1.4,4.4-4.7
				c-0.2-7.5-0.1-14.9-0.1-22.4c9,0,18,0,27,0c0,7.5,0.1,14.9-0.1,22.4c-0.1,3.3,0.7,4.9,4.4,4.7c6.1-0.3,12.3-0.3,18.4,0
				c3.7,0.2,4.4-1.4,4.4-4.7c-0.2-7.5-0.1-14.9-0.1-22.4c9.3,0,18.7,0,28,0c0,7.5,0.1,14.9-0.1,22.4c-0.1,3.3,0.7,4.9,4.4,4.7
				c6.1-0.3,12.3-0.3,18.4,0c3.7,0.2,4.4-1.4,4.4-4.7c-0.2-7.5-0.1-14.9-0.1-22.4c9.3,0,18.7,0,28,0c0,7.5,0.1,14.9-0.1,22.4
				c-0.1,3.3,0.7,4.9,4.4,4.7c6.1-0.3,12.3-0.3,18.4,0c3.7,0.2,4.4-1.4,4.4-4.7c-0.2-7.5-0.1-14.9-0.1-22.4c9,0,18,0,27,0l0,0
				c0,5.3,0,10.5,0,15.8C925,599,925,599,936,599z"/>
			<path class="st2" d="M431,326c0-55.6,0-111.3-0.1-166.9c0-3.2,0.3-4.2,4-4.2c165.7,0.1,331.4,0.1,497.1,0c3.5,0,4.2,0.7,4.1,4.1
				c-0.3,10-0.1,20-0.1,30c-3.7,0-7.3,0-11,0c0-7.7-0.1-15.3,0.1-23c0.1-3.5-1-5.2-4.8-5.1c-5.8,0.2-11.6,0.2-17.5,0
				c-3.8-0.1-4.9,1.6-4.8,5.1c0.2,7.6,0.1,15.3,0.1,23c-2.3,0-4.7,0-7,0c-5.5-7.9-11.7-15-20-20.2c0-1.8,0-3.6-0.1-5.4
				c0-1.3-0.6-2.4-2-2.3c-5.3,0.3-10.7-1.1-16,0.9c-10.5-0.2-21-0.6-31.4-0.6c-99.4-0.1-198.7,0-298.1-0.1
				c-12.3,0-24.2,1.1-35.4,6.8c-0.3-0.5-1-1.1-1-1.6c0.5-5-2.3-5.7-6.4-5.5c-5.3,0.3-10.6,0.3-15.9,0c-3.6-0.2-5,0.9-4.9,4.7
				c0.3,7.8,0.1,15.6,0.1,23.4c-7.7,0-15.3,0.1-23-0.1c-3-0.1-4.2,0.9-4.1,4c0.2,6.3,0.2,12.7,0,19c-0.1,3.4,1.3,4.2,4.4,4.1
				c7.5-0.2,15,0,22.5,0c0,9.3,0,18.6,0,28c-7.5,0-15,0.2-22.4-0.1c-3.6-0.1-4.6,1.2-4.5,4.6c0.2,6,0.2,12,0,17.9
				c-0.1,3.4,0.9,4.7,4.5,4.6c7.5-0.2,14.9-0.1,22.4-0.1c0,9,0,18,0,27c-7.6,0-15.2,0.1-22.9,0c-3-0.1-4.1,1-4,4
				c0.2,6.3,0.1,12.6,0,18.9C433,322.8,433.3,324.9,431,326z"/>
			<path class="st2" d="M431,435c0-27.3,0-54.7,0-82c0.7,0,1.3,0,2,0c0,7.3,0.2,14.6-0.1,21.9c-0.1,3.8,0.8,5.3,5,5.2
				c7.3-0.3,14.6-0.1,21.9-0.1c0,9.3,0,18.6,0,28c-7.3,0-14.6,0.2-21.9-0.1c-4.1-0.2-5.1,1.3-5,5.2c0.3,7.3,0.1,14.6,0.1,21.9
				C432.3,435,431.7,435,431,435z"/>
			<path class="st3" d="M431,435c0.7,0,1.3,0,2,0c0,0,0,0,0,0c0,7.3,0.2,14.6-0.1,21.9c-0.1,3.8,0.8,5.3,5,5.2
				c7.3-0.3,14.6-0.1,21.9-0.1c0.4,4,0.8,8,1.2,12c-2.2,5.2-0.5,10.7-1,16c-7.6,0-15.2,0.1-22.8-0.1c-3.2-0.1-4.3,1-4.3,4.3
				c0.2,7.6,0.1,15.2,0.1,22.8l0,0c-0.7,0-1.3,0-2,0c0-9,0-18,0-27c1.6-0.7,2-2,2-3.6c0-6.9,0-13.8,0-20.7c0-1.6-0.5-2.9-2-3.6
				C431,453,431,444,431,435z"/>
			<path class="st3" d="M433,572c-0.7,0-1.3,0-2,0c0-9,0-18,0-27c2.3-1.1,2-3.2,2-5.1c0-7.6,0-15.2,0-22.9c0,0,0,0,0,0
				c9,0,18,0,27,0c0,9.3,0,18.7,0,28c0,0,0,0,0,0c-7.6,0-15.2,0.1-22.8-0.1c-3.2-0.1-4.3,1-4.3,4.3C433.1,556.8,433,564.4,433,572
				L433,572z"/>
			<path class="st3" d="M433,353c-0.7,0-1.3,0-2,0c0-9,0-18,0-27c2.3-1.1,2-3.2,2-5.1c0-6.3,0.1-12.6,0-18.9c-0.1-3,1-4.1,4-4
				c7.6,0.2,15.2,0,22.9,0c0,9.3,0,18.7,0,28c-7.3,0-14.6,0.2-21.9-0.1c-4.1-0.2-5.1,1.3-5,5.2C433.2,338.4,433,345.7,433,353
				L433,353z"/>
			<path class="st2" d="M936,216c0,9.3,0,18.7,0,28c-3.7,0-7.3,0-11,0c0-9.3,0-18.7,0-28C928.7,216,932.3,216,936,216z"/>
			<path class="st2" d="M936,380c0,9.3,0,18.7,0,28c-3.7,0-7.3,0-11,0c0-9.3,0-18.7,0-28C928.7,380,932.3,380,936,380z"/>
			<path class="st3" d="M936,517c0,9.3,0,18.7,0,28c-3.7,0-7.3,0-11,0l0,0c0-9.3,0-18.7,0-28C928.7,517,932.3,517,936,517z"/>
			<path class="st3" d="M936,298c0,9.3,0,18.7,0,28c-3.7,0-7.3,0-11,0c0-9.3,0-18.7,0-28C928.7,298,932.3,298,936,298z"/>
			<path class="st3" d="M936,462c0,9.3,0,18.7,0,28c-3.7,0-7.3,0-11,0c0-9.3,0-18.7,0-28C928.7,462,932.3,462,936,462z"/>
			<path class="st2" d="M925,326c3.7,0,7.3,0,11,0c0,9,0,18,0,27c-3.7,0-7.3,0-11,0C925,344,925,335,925,326L925,326z"/>
			<path class="st3" d="M936,216c-3.7,0-7.3,0-11,0c0,0,0,0,0,0c0-9,0-18,0-27l0,0c3.7,0,7.3,0,11,0C936,198,936,207,936,216z"/>
			<path class="st3" d="M925,353c3.7,0,7.3,0,11,0c0,9,0,18,0,27c-3.7,0-7.3,0-11,0c0,0,0,0,0,0C925,371,925,362,925,353L925,353z"
				/>
			<path class="st2" d="M925,545c3.7,0,7.3,0,11,0c0,9,0,18,0,27c-3.7,0-7.3,0-11,0c0,0,0,0,0,0C925,563,925,554,925,545z"/>
			<path class="st3" d="M925,408c3.7,0,7.3,0,11,0c0,9,0,18,0,27c-3.7,0-7.3,0-11,0C925,426,925,417,925,408L925,408z"/>
			<path class="st2" d="M925,435c3.7,0,7.3,0,11,0c0,9,0,18,0,27c-3.7,0-7.3,0-11,0c0,0,0,0,0,0C925,453,925,444,925,435L925,435z"
				/>
			<path class="st3" d="M925,244c3.7,0,7.3,0,11,0c0,9,0,18,0,27c-3.7,0-7.3,0-11,0C925,262,925,253,925,244L925,244z"/>
			<path class="st2" d="M925,490c3.7,0,7.3,0,11,0c0,9,0,18,0,27c-3.7,0-7.3,0-11,0c0,0,0,0,0,0C925,508,925,499,925,490L925,490z"
				/>
			<path class="st2" d="M925,271c3.7,0,7.3,0,11,0c0,9,0,18,0,27c-3.7,0-7.3,0-11,0c0,0,0,0,0,0C925,289,925,280,925,271L925,271z"
				/>
			<path class="st3" d="M925,572c3.7,0,7.3,0,11,0c0,9,0,18,0,27c-11,0-11,0-11-11.2C925,582.5,925,577.3,925,572z"/>
			<path class="st2" d="M433,517c0,7.6,0,15.2,0,22.9c0,2,0.3,4.1-2,5.1c0-9.3,0-18.7,0-28C431.7,517,432.3,517,433,517z"/>
			<path class="st2" d="M431,462c1.6,0.7,2,2,2,3.6c0,6.9,0,13.8,0,20.7c0,1.6-0.5,2.9-2,3.6C431,480.7,431,471.3,431,462z"/>
			<path class="st4" d="M459.8,326c0-9.3,0-18.7,0-28c0-9,0-18,0-27c0-9,0-18,0-27c0-9.3,0-18.6,0-28c0.3-3,0.7-6,1-9.1
				c0.9-6.4,3.9-12.1,6.2-17.9c5.7-8.3,12.5-15.6,21.1-20.9c11.1-5.7,23.1-6.8,35.4-6.8c99.4,0.1,198.7,0.1,298.1,0.1
				c10.5,0,21,0.4,31.4,0.6c6.1,2,12.3,3.8,18,6.8c8.2,5.2,14.5,12.3,20,20.2c2,5.3,4,10.7,6.1,16c0.4,3.7,0.7,7.3,1.1,11
				c0,9.3,0,18.7,0,28c0,9,0,18,0,27c0,9,0,18,0,27c0,9.3,0,18.6,0,28c0,9,0,18,0,27c0,9,0,18,0,27c0,9.3,0,18.7,0,28c0,9,0,18,0,27
				c0,9,0,18,0,27c-0.4,4-0.8,8-1.2,12c-1.7,5.5-3.9,10.7-6.3,15.9c-5.6,8.3-12.3,15.4-21,20.6c-4.3,1.8-8.6,3.5-12.9,5.3
				c-4.6,0.5-9.2,1.1-13.9,1.6c-9,0-18,0-27.1,0c-9.3,0-18.6,0-27.9,0c-9-0.4-18-0.4-27.1,0c-9,0-18,0-26.9,0
				c-5.2,0.1-10.7-1.9-15.4,1.1c-4.9,3-9.2,6.9-13.8,10.4c-6.7,5-13.3,9.9-20,14.9c-2.3,1.7-4.6,3.5-6.8,5.2
				c-18.1,13.5-36.1,27.1-54.2,40.6c-3.9,2.4-7.5,5.1-10.9,8.2c-10.4,3.5-15.9-0.5-15.9-11.5c0-4.8-0.1-9.5-0.2-14.3c0-9,0-18,0-27
				c0.1-8.1,0.1-16.2,0.2-24.3c0-2.4-0.4-3.6-3.2-3.6c-7.9,0.2-15.9,0.2-23.8,0.3c-9.3-0.4-18.7-0.4-28,0c-9,0-18,0-27,0
				c-3.7-0.4-7.4-0.8-11.1-1.2c-5.9-1.3-11.4-3.7-16.9-6.3c-8.1-5.2-14.4-12-19.8-19.9c-2.4-5.2-4.7-10.4-6.2-15.9
				c-0.4-4-0.8-8-1.2-12c0-9,0-18,0-27c0-9,0-18,0-27c0-9.3,0-18.6,0-28c0-9,0-18,0-27C459.8,344,459.8,335,459.8,326z M624.5,554
				c0.2-0.2,0.7-0.3,0.1-0.7C624.6,553.5,624.6,553.7,624.5,554l0,0.4L624.5,554z M672.2,518.4c2.5-1.4,4.9-3.1,6.9-5.2
				c8.2-6.1,16.6-12,24.7-18.3c4.6-3.6,9.3-5.8,15.4-5.2c4.9,0.5,9.9-0.1,14.9-0.1c9,0,18,0,27,0c9,0.4,18,0.4,27,0
				c9.3,0,18.6,0,27.9,0c9,0.4,18,0.4,27.1,0c16.6-1,27.2-11.7,27.1-27.5c0.8-9,0.7-18.1,0-27.1c0-9,0-17.9,0-26.9
				c0.7-9.4,0.7-18.7,0-28.1c0-9,0-17.9,0-26.9c0.7-9,0.8-18,0-27.1c0-9.3,0-18.6,0-27.9c0.7-9,0.7-18,0-27.1c0-9,0-17.9,0-26.9
				c0.7-9.4,0.8-18.7,0-28.1c0-15.4-11.5-26.8-27.1-26.9c-9,0-18,0-27,0c-9.3,0-18.7,0-28,0c-9,0-18,0-27,0c-9,0-18,0-27,0
				c-9.3,0-18.7,0-28,0c-9,0-18,0-27,0c-9,0-18,0-27,0c-9.3,0-18.7,0-28,0c-9,0-18,0-27,0c-9,0-18,0-27,0c-9.3,0-18.7,0-28,0
				c-9,0-18,0-27,0c-15.6,0.1-27.3,11.8-27.1,27c-0.5,9.3-0.4,18.6,0,28c-0.8,9-0.7,18,0,27.1c0,9,0,17.9,0,26.9
				c-0.7,9.4-0.7,18.7,0,28.1c0,9,0,17.9,0,26.9c-0.7,9-0.7,18,0,27.1c0,9.3,0,18.6,0,27.9c-0.7,9-0.7,18.1,0,27.1
				c0,9,0,17.9,0,26.9c-0.5,15.3,11.5,27.5,27.2,27.6c9,0,18,0,26.9,0c9.3,0.4,18.7,0.4,28,0c9,0,18,0,26.9,0
				c9.1,0.1,18.1,0.2,27.2,0.2c0.1,9.1,0.2,18.1,0.3,27.2c-0.1,11-0.1,21.9-0.2,32.9c0,3.3,1.3,3.9,3.8,1.9
				c8.1-6.1,16.1-12.2,24.1-18.4C659.1,528.7,665.8,523.8,672.2,518.4z"/>
			<path class="st3" d="M504,516.2c3.7,0.4,7.4,0.8,11.1,1.2c0,9.2,0,18.4,0,27.6l0,0c-7.8,0-15.6,0.1-23.4,0
				c-3.4-0.1-4.7,1.3-4.7,4.7c0.1,7.5,0,14.9,0,22.4l0,0c-9,0-18,0-27,0l0,0c0-9,0-18,0-27c0,0,0,0,0,0c7.5,0,14.9-0.1,22.4,0
				c3.4,0.1,4.7-1.3,4.7-4.7c-0.1-7.8,0-15.6,0-23.4l0,0C492.6,516.5,498.4,518,504,516.2z"/>
			<path class="st3" d="M542,517.4c9.3-0.4,18.7-0.4,28,0c0,7.3,0.2,14.6-0.1,21.8c-0.2,4.7,1.6,6,6.1,5.8
				c6.9-0.3,13.9-0.1,20.8-0.1c0,9,0,18,0,27c-8.9,0-17.9,0-26.8,0c0,0,0,0,0,0c0-7.5-0.1-14.9,0-22.4c0.1-3.4-1.3-4.7-4.7-4.7
				c-7.8,0.1-15.6,0-23.4,0l0,0C542,535.8,542,526.6,542,517.4z"/>
			<path class="st3" d="M734,572c0,7.5-0.1,14.9,0.1,22.4c0.1,3.3-0.7,4.8-4.4,4.7c-6.5-0.3-12.9-0.3-19.4,0
				c-3.7,0.2-4.4-1.4-4.4-4.7c0.2-7.5,0.1-14.9,0.1-22.4c0,0,0,0,0,0C715.3,572,724.7,572,734,572L734,572z"/>
			<path class="st3" d="M871,572c-9.3,0-18.7,0-28,0c0,0,0,0,0,0c0-9,0-18,0-27l0,0c9.3,0,18.7,0,28,0C871,554,871,563,871,572
				L871,572z"/>
			<path class="st3" d="M816,572c-9.3,0-18.7,0-28,0l0,0c0-9,0-18,0-27l0,0c9.3,0,18.7,0,28,0l0,0C816,554,816,563,816,572L816,572z
				"/>
			<path class="st3" d="M570,572c0,7.3-0.2,14.6,0.1,21.9c0.1,4-1.4,5.3-5.3,5.1c-6.1-0.2-12.3-0.2-18.4,0c-3.7,0.2-4.5-1.3-4.4-4.7
				c0.2-7.5,0.1-14.9,0.1-22.4l0,0C551.3,572,560.7,572,570,572L570,572z"/>
			<path class="st3" d="M515,572c0,7.5-0.1,14.9,0.1,22.4c0.1,3.3-0.8,4.8-4.4,4.7c-6.1-0.3-12.3-0.2-18.4,0
				c-3.8,0.1-5.4-1.2-5.3-5.1c0.2-7.3,0.1-14.6,0.1-21.9c0,0,0,0,0,0C496.3,572,505.7,572,515,572L515,572z"/>
			<path class="st3" d="M843,572c0,7.5-0.1,14.9,0.1,22.4c0.1,3.3-0.7,4.9-4.4,4.7c-6.1-0.3-12.3-0.3-18.4,0
				c-3.7,0.2-4.4-1.4-4.4-4.7c0.2-7.5,0.1-14.9,0.1-22.4c0,0,0,0,0,0C825,572,834,572,843,572L843,572z"/>
			<path class="st3" d="M761,572c-9,0-18,0-27,0c0,0,0,0,0,0c0-9,0-18,0-27l0,0c9,0,18,0,27,0l0,0C761,554,761,563,761,572L761,572z
				"/>
			<path class="st3" d="M898,572c0,7.5-0.1,14.9,0.1,22.4c0.1,3.3-0.7,4.9-4.4,4.7c-6.1-0.3-12.3-0.3-18.4,0
				c-3.7,0.2-4.4-1.4-4.4-4.7c0.2-7.5,0.1-14.9,0.1-22.4l0,0C880,572,889,572,898,572L898,572z"/>
			<path class="st3" d="M788,572c0,7.5-0.1,14.9,0.1,22.4c0.1,3.3-0.7,4.9-4.4,4.7c-6.1-0.3-12.3-0.3-18.4,0
				c-3.7,0.2-4.4-1.4-4.4-4.7c0.2-7.5,0.1-14.9,0.1-22.4c0,0,0,0,0,0C770,572,779,572,788,572L788,572z"/>
			<path class="st3" d="M542,572c-9,0-18,0-27,0c0,0,0,0,0,0c0-9,0-18,0-27c0,0,0,0,0,0c9,0,18,0,27,0c0,0,0,0,0,0
				C542,554,542,563,542,572L542,572z"/>
			<path class="st3" d="M925,545c0,9,0,18,0,27c-9,0-18,0-27,0c0,0,0,0,0,0c0-9,0-18,0-27C907,545,916,545,925,545L925,545z"/>
			<path class="st3" d="M460,572c0,7.5-0.1,14.9,0.1,22.4c0.1,3.3-0.7,4.9-4.4,4.7c-6.1-0.3-12.3-0.3-18.4,0
				c-3.7,0.2-4.4-1.4-4.4-4.7c0.2-7.5,0.1-14.9,0.1-22.4c0,0,0,0,0,0C442,572,451,572,460,572L460,572z"/>
			<path class="st3" d="M679,572c0,7.5-0.1,14.9,0.1,22.4c0.1,3.3-0.8,4.8-4.4,4.7c-6.3-0.3-12.6-0.2-18.9,0c-2.8,0.1-3.8-1-3.8-3.8
				c0.1-6.5,0.2-13,0-19.4c-0.1-3.2,1.3-3.9,4.1-3.9C663.7,572.1,671.4,572,679,572C679,572,679,572,679,572z"/>
			<path class="st3" d="M678.1,549c2.3-1.7,4.6-3.5,6.8-5.2c1.2,1.7,2.9,1.2,4.5,1.2c5.5,0,11.1,0,16.6,0c0,9,0,18,0,27c0,0,0,0,0,0
				c-9,0-18,0-27,0c0,0,0,0,0,0c0-6.1,0-12.2,0-18.3C679,552.1,679.5,550.4,678.1,549z"/>
			<path class="st3" d="M612.9,597.8c3.4-3.1,7.1-5.8,10.9-8.2c0,0.5,0.1,1,0.1,1.5C624.2,599.6,621.1,601.5,612.9,597.8z"/>
			<path class="st3" d="M898,189c0-7.7,0.1-15.3-0.1-23c-0.1-3.5,1-5.2,4.8-5.1c5.8,0.2,11.6,0.2,17.5,0c3.8-0.1,4.9,1.6,4.8,5.1
				c-0.2,7.6-0.1,15.3-0.1,23c0,0,0,0,0,0C916,189,907,189,898,189L898,189z"/>
			<path class="st3" d="M460.8,207c-0.3,3-0.7,6-1,9.1c-7.5,0-15-0.1-22.5,0c-3.1,0.1-4.6-0.7-4.4-4.1c0.2-6.3,0.2-12.7,0-19
				c-0.1-3.1,1.1-4,4.1-4c7.7,0.2,15.3,0.1,23,0.1c0,0,0,0,0,0C460.5,195,458.9,201,460.8,207z"/>
			<path class="st3" d="M459.8,244c0,9,0,18,0,27c-7.5,0-15-0.2-22.4,0.1c-3.6,0.1-4.6-1.2-4.5-4.6c0.2-6,0.2-12,0-17.9
				c-0.1-3.4,0.9-4.7,4.5-4.6C444.9,244.2,452.3,244,459.8,244z"/>
			<path class="st3" d="M488.1,168.1c-8.7,5.3-15.4,12.6-21.1,20.9c-2.3,0-4.7,0-7,0c0,0,0,0,0,0c0-7.8,0.2-15.6-0.1-23.4
				c-0.1-3.8,1.3-4.9,4.9-4.7c5.3,0.3,10.6,0.3,15.9,0c4.1-0.2,6.9,0.5,6.4,5.5C487.1,167,487.8,167.5,488.1,168.1z"/>
			<path class="st3" d="M871,168.8c-5.7-3.1-11.9-4.8-18-6.8c5.2-2,10.6-0.6,16-0.9c1.4-0.1,2,1,2,2.3C871,165.2,871,167,871,168.8z
				"/>
			<path class="st3" d="M897,205c-2-5.3-4-10.7-6.1-16c2.3,0,4.7,0,7,0c0,0,0,0,0,0C897.5,194.3,899.1,199.8,897,205z"/>
			<path class="st3" d="M459.8,408c0,9,0,18,0,27c-8.9,0-17.9,0-26.8,0c0,0,0,0,0,0c0-7.3,0.2-14.6-0.1-21.9c-0.1-3.8,0.8-5.3,5-5.2
				C445.2,408.2,452.5,408,459.8,408z"/>
			<path class="st3" d="M459.8,353c0,9,0,18,0,27c-7.3,0-14.6-0.2-21.9,0.1c-4.1,0.2-5.1-1.3-5-5.2c0.3-7.3,0.1-14.6,0.1-21.9
				c0,0,0,0,0,0C441.9,353,450.9,353,459.8,353z"/>
			<path class="st2" d="M460,517c-9,0-18,0-27,0c0-7.6,0.1-15.2-0.1-22.8c-0.1-3.2,1-4.3,4.3-4.3c7.6,0.2,15.2,0.1,22.8,0.1
				c0,0,0,0,0,0C460,499,460,508,460,517L460,517z"/>
			<path class="st2" d="M433,435c8.9,0,17.9,0,26.8,0c0,9,0,18,0,27c-7.3,0-14.6-0.2-21.9,0.1c-4.1,0.2-5.1-1.3-5-5.2
				C433.2,449.6,433,442.3,433,435z"/>
			<path class="st2" d="M461,474c1.6,5.5,3.8,10.8,6.2,15.9c-2.4,0-4.9,0-7.3,0.1c0,0,0,0,0,0C460.6,484.7,458.8,479.2,461,474z"/>
			<path class="st2" d="M487,517c0,7.8-0.1,15.6,0,23.4c0.1,3.4-1.3,4.7-4.7,4.7c-7.5-0.1-14.9,0-22.4,0c0-9.3,0-18.7,0-28
				c0,0,0,0,0,0C469,517,478,517,487,517z"/>
			<path class="st2" d="M460,572c-9,0-18,0-27,0c0-7.6,0.1-15.2-0.1-22.8c-0.1-3.2,1-4.3,4.3-4.3c7.6,0.2,15.2,0.1,22.8,0.1
				C460,554,460,563,460,572z"/>
			<path class="st2" d="M459.8,353c-8.9,0-17.9,0-26.8,0c0-7.3,0.2-14.6-0.1-21.9c-0.1-3.8,0.8-5.3,5-5.2c7.3,0.3,14.6,0.1,21.9,0.1
				C459.8,335,459.8,344,459.8,353z"/>
			<path class="st3" d="M898.2,244c0-9.3,0-18.7,0-28c8.9,0,17.9,0,26.8,0c0,0,0,0,0,0c0,9.3,0,18.7,0,28c0,0,0,0,0,0
				C916.1,244,907.1,244,898.2,244z"/>
			<path class="st3" d="M898.2,408c0-9.3,0-18.7,0-28c8.9,0,17.9,0,26.8,0c0,0,0,0,0,0c0,9.3,0,18.7,0,28c0,0,0,0,0,0
				C916.1,408,907.1,408,898.2,408z"/>
			<path class="st2" d="M925,545c-9,0-18,0-27,0l0,0c0-9.3,0-18.7,0-28l0,0c9,0,18,0,27,0c0,0,0,0,0,0C925,526.3,925,535.7,925,545z
				"/>
			<path class="st2" d="M898.2,326c0-9.3,0-18.6,0-28c8.9,0,17.9,0,26.8,0c0,0,0,0,0,0c0,9.3,0,18.7,0,28c0,0,0,0,0,0
				C916.1,326,907.1,326,898.2,326z"/>
			<path class="st2" d="M897,474c0.4-4,0.8-8,1.2-12c8.9,0,17.9,0,26.8,0c0,0,0,0,0,0c0,9.3,0,18.7,0,28c0,0,0,0,0,0c-9,0-18,0-27,0
				l0,0C897.5,484.7,899.1,479.2,897,474z"/>
			<path class="st3" d="M898.2,326c8.9,0,17.9,0,26.8,0c0,9,0,18,0,27c0,0,0,0,0,0c-8.9,0-17.9,0-26.8,0
				C898.2,344,898.2,335,898.2,326z"/>
			<path class="st2" d="M925,216c-8.9,0-17.9,0-26.8,0c-0.4-3.7-0.7-7.3-1.1-11c2-5.2,0.4-10.7,1-16c9,0,18,0,27,0
				C925,198,925,207,925,216z"/>
			<path class="st2" d="M898.2,353c8.9,0,17.9,0,26.8,0c0,9,0,18,0,27c-8.9,0-17.9,0-26.8,0C898.2,371,898.2,362,898.2,353z"/>
			<path class="st2" d="M898.2,408c8.9,0,17.9,0,26.8,0c0,9,0,18,0,27c0,0,0,0,0,0c-8.9,0-17.9,0-26.8,0
				C898.2,426,898.2,417,898.2,408z"/>
			<path class="st3" d="M898.2,435c8.9,0,17.9,0,26.8,0c0,9,0,18,0,27c-8.9,0-17.9,0-26.8,0C898.2,453,898.2,444,898.2,435z"/>
			<path class="st2" d="M898.2,244c8.9,0,17.9,0,26.8,0c0,9,0,18,0,27c0,0,0,0,0,0c-8.9,0-17.9,0-26.8,0
				C898.2,262,898.2,253,898.2,244z"/>
			<path class="st3" d="M898,490c9,0,18,0,27,0c0,9,0,18,0,27c-9,0-18,0-27,0C898,508,898,499,898,490z"/>
			<path class="st3" d="M898.2,271c8.9,0,17.9,0,26.8,0c0,9,0,18,0,27c-8.9,0-17.9,0-26.8,0C898.2,289,898.2,280,898.2,271z"/>
			<path class="st3" d="M788,489.6c-9,0.4-18,0.4-27,0c0-9.2,0-18.4,0-27.6c7.6,0,15.2-0.1,22.8,0.1c3.2,0.1,4.3-1,4.3-4.3
				c-0.2-7.6-0.1-15.2-0.1-22.8c9.3,0,18.7,0,28,0c0,9,0,18,0,27l0,0c-7.4,0-14.9,0.2-22.3-0.1c-4.5-0.2-5.8,1.8-5.7,5.9
				C788.1,475.1,788,482.3,788,489.6z"/>
			<path class="st3" d="M734,489.6c-5,0.1-10,0.6-14.9,0.1c-6.1-0.6-10.7,1.5-15.4,5.2c-8.1,6.3-16.4,12.2-24.7,18.3
				c0-7.7-0.1-15.5-0.1-23.2c7.6,0,15.2-0.1,22.8,0.1c3.2,0.1,4.3-1,4.3-4.3c-0.2-7.9-0.1-15.9-0.1-23.8c9.3,0,18.7,0,28,0
				C734,471.2,734,480.4,734,489.6z"/>
			<path class="st2" d="M871,545c-9.3,0-18.7,0-28,0c0-9.2,0-18.4,0-27.6c4.6-0.5,9.2-1.1,13.9-1.6c4.5,2.7,9.4,0.6,14.1,1.2
				c0,0,0,0,0,0C871,526.3,871,535.7,871,545L871,545z"/>
			<path class="st3" d="M870.1,216c0.8,9.4,0.8,18.7,0,28.1c-9.1,0-18.1,0-27.2,0c0-9.3,0-18.7,0-28l0,0
				C852,216,861.1,216,870.1,216z"/>
			<path class="st2" d="M816,545c-9.3,0-18.7,0-28,0c0-9.2,0-18.4,0-27.6c9.3,0,18.6,0,27.9,0C816,526.6,816,535.8,816,545z"/>
			<path class="st3" d="M870.1,380c0.7,9.4,0.7,18.7,0,28.1c-9,0-18.1,0-27.1,0c0-9.3,0-18.7,0-28C852,380,861.1,380,870.1,380z"/>
			<path class="st3" d="M487.9,326c-0.7-9.4-0.7-18.7,0-28.1c9,0,18.1,0,27.1,0c0,9.3,0,18.7,0,28C506,326,496.9,326,487.9,326z"/>
			<path class="st3" d="M570,489.6c-9.3,0.4-18.7,0.4-28,0c0-9.2,0-18.4,0-27.6c9.3,0,18.7,0,28,0C570,471.2,570,480.4,570,489.6z"
				/>
			<path class="st2" d="M788,489.6c0-7.3,0.1-14.5,0-21.8c-0.1-4.1,1.2-6.1,5.7-5.9c7.4,0.3,14.9,0.1,22.3,0.1c0,9.2,0,18.4,0,27.6
				C806.7,489.6,797.3,489.6,788,489.6z"/>
			<path class="st2" d="M652.2,533.4c-8,6.1-16.1,12.3-24.1,18.4c-2.6,1.9-3.9,1.4-3.8-1.9c0.1-11,0.1-21.9,0.2-32.9
				c9.2,0,18.4,0,27.6,0l0,0C652.1,522.5,652.1,528,652.2,533.4z"/>
			<path class="st3" d="M870.1,435c0.7,9,0.8,18.1,0,27.1c-9,0-18.1,0-27.1,0l0,0c0-9,0-18,0-27C852,435,861.1,435,870.1,435z"/>
			<path class="st2" d="M542,462c0,9.2,0,18.4,0,27.6c-9,0-18,0-26.9,0c0-9.2,0-18.4,0-27.6c0,0,0,0,0,0C524,462,533,462,542,462
				L542,462z"/>
			<path class="st2" d="M570,489.6c0-9.2,0-18.4,0-27.6l0,0c9,0,18,0,27,0c0,9.2,0,18.4,0,27.6C588,489.6,579,489.6,570,489.6z"/>
			<path class="st3" d="M597,489.6c0-9.2,0-18.4,0-27.6c0,0,0,0,0,0c9,0,18,0,27,0c0.1,9.2,0.2,18.5,0.3,27.7l-0.1,0.1
				C615.1,489.8,606,489.7,597,489.6z"/>
			<path class="st2" d="M624,189.1c9.3,0,18.7,0,28,0c0,9,0,18,0,26.9c-9.3,0-18.7,0-28,0C624,207,624,198,624,189.1z"/>
			<path class="st3" d="M706,189.1c9.3,0,18.7,0,28,0c0,9,0,18,0,26.9c-9.3,0-18.7,0-28,0C706,207,706,198,706,189.1z"/>
			<path class="st2" d="M870.1,298c0,9.3,0,18.6,0,27.9c-9,0-18.1,0-27.1,0c0-9.3,0-18.7,0-28C852,298,861.1,298,870.1,298z"/>
			<path class="st2" d="M734,489.6c0-9.2,0-18.4,0-27.6l0,0c9,0,18,0,27,0l0,0c0,9.2,0,18.4,0,27.6C752,489.6,743,489.6,734,489.6z"
				/>
			<path class="st2" d="M788,189.1c9.3,0,18.7,0,28,0c0,9,0,18,0,26.9l0,0c-9.3,0-18.7,0-28,0C788,207,788,198.1,788,189.1z"/>
			<path class="st3" d="M816,489.6c0-9.2,0-18.4,0-27.6l0,0c9,0,18,0,27,0l0,0c0,9.2,0,18.4,0,27.6C834,490,825,490,816,489.6z"/>
			<path class="st3" d="M487.9,435c-0.7-9-0.7-18.1,0-27.1c9,0,18.1,0,27.1,0c0,9,0,18,0,27l0,0C506,435,496.9,435,487.9,435z"/>
			<path class="st2" d="M515,408c-9,0-18.1,0-27.1,0c0-9.3,0-18.6,0-27.9c9,0,18.1,0,27.1,0C515,389.3,515,398.7,515,408L515,408z"
				/>
			<path class="st3" d="M515,380c-9,0-18.1,0-27.1,0c-0.8-9-0.7-18,0-27.1c9,0,18.1,0,27.1,0C515,362,515,371,515,380L515,380z"/>
			<path class="st3" d="M542,189.1c9.3,0,18.7,0,28,0c0,9,0,18,0,26.9c-9.3,0-18.7,0-28,0C542,207,542,198,542,189.1z"/>
			<path class="st3" d="M843,326c9,0,18.1,0,27.1,0c0.8,9,0.7,18,0,27.1c-9,0-18.1,0-27.1,0C843,344,843,335,843,326L843,326z"/>
			<path class="st2" d="M487.9,244c-0.4-9.3-0.4-18.6,0-28c9,0,18.1,0,27.1,0c0,0,0,0,0,0c0,9.3,0,18.7,0,28
				C506,244,496.9,244,487.9,244z"/>
			<path class="st2" d="M761,545c-9,0-18,0-27,0c0-9.2,0-18.4,0-27.6c9,0,18,0,26.9,0C761,526.6,761,535.8,761,545z"/>
			<path class="st3" d="M761,545c0-9.2,0-18.4,0-27.6c9-0.4,18-0.4,27.1,0c0,9.2,0,18.4,0,27.6c0,0,0,0,0,0C779,545,770,545,761,545
				L761,545z"/>
			<path class="st3" d="M816,545c0-9.2,0-18.4,0-27.6c9,0,18,0,27.1,0c0,9.2,0,18.4,0,27.6c0,0,0,0,0,0C834,545,825,545,816,545
				L816,545z"/>
			<path class="st3" d="M487.9,244c9,0,18.1,0,27.1,0c0,0,0,0,0,0c0,9,0,18,0,27c-9,0-18.1,0-27.1,0C487.1,262,487.1,253,487.9,244z
				"/>
			<path class="st3" d="M870.1,298c-9,0-18.1,0-27.1,0l0,0c0-9,0-18,0-27c9,0,18.1,0,27.1,0C870.9,280,870.9,289,870.1,298z"/>
			<path class="st3" d="M652,517c-9.2,0-18.4,0-27.6,0c-0.1-9.1-0.2-18.1-0.3-27.2c0,0,0.1-0.1,0.1-0.1c9.2,0.1,18.5,0.2,27.7,0.3
				C652,499,652,508,652,517z"/>
			<path class="st2" d="M542,545c-9,0-18,0-27,0c0-9.2,0-18.4,0-27.6c9,0,18,0,27,0C542,526.6,542,535.8,542,545z"/>
			<path class="st2" d="M596.8,545c-6.9,0-13.9-0.2-20.8,0.1c-4.5,0.2-6.3-1.1-6.1-5.8c0.3-7.3,0.1-14.6,0.1-21.8
				c7.9-0.1,15.9-0.1,23.8-0.3c2.8-0.1,3.3,1.2,3.2,3.6C596.9,528.8,596.9,536.9,596.8,545z"/>
			<path class="st2" d="M487.9,435c9,0,18.1,0,27.1,0c0,9,0,18,0,27c0,0,0,0,0,0c-9,0-18.1,0-27.1,0C487.9,453,487.9,444,487.9,435z
				"/>
			<path class="st2" d="M870.1,435c-9,0-18.1,0-27.1,0c0,0,0,0,0,0c0-9,0-18,0-27l0,0c9,0,18.1,0,27.1,0
				C870.1,417,870.1,426,870.1,435z"/>
			<path class="st2" d="M870.1,271c-9,0-18.1,0-27.1,0c0,0,0,0,0,0c0-9,0-18,0-27c0,0,0,0,0,0c9.1,0,18.1,0,27.2,0
				C870.1,253,870.1,262,870.1,271z"/>
			<path class="st2" d="M515,353c-9,0-18.1,0-27.1,0c0-9,0-17.9,0-26.9c9.1,0,18.1,0,27.2,0c0,0,0,0,0,0C515,335,515,344,515,353
				L515,353z"/>
			<path class="st2" d="M487.9,271c9,0,18.1,0,27.1,0c0,0,0,0,0,0c0,9,0,18,0,27l0,0c-9,0-18.1,0-27.1,0
				C487.9,289,487.9,280,487.9,271z"/>
			<path class="st2" d="M542,189.1c0,9,0,18,0,26.9l0,0c-9,0-18,0-27,0c0,0,0,0,0,0c0-9,0-18,0-26.9C524,189.1,533,189.1,542,189.1z
				"/>
			<path class="st2" d="M570,216c0-9,0-18,0-26.9c9,0,18,0,27,0c0,9,0,18,0,26.9C588,216,579,216,570,216L570,216z"/>
			<path class="st2" d="M843,353c9,0,18.1,0,27.1,0c0,9,0,17.9,0,26.9c-9,0-18.1,0-27.1,0c0,0,0,0,0,0C843,371,843,362,843,353
				L843,353z"/>
			<path class="st3" d="M597,216c0-9,0-18,0-26.9c9,0,18,0,27,0c0,9,0,18,0,26.9c0,0,0,0,0,0C615,216,606,216,597,216L597,216z"/>
			<path class="st3" d="M652,216c0-9,0-18,0-26.9c9,0,18,0,27,0c0,9,0,18,0,26.9C670,216,661,216,652,216L652,216z"/>
			<path class="st2" d="M679,216c0-9,0-18,0-26.9c9,0,18,0,27,0c0,9,0,18,0,26.9c0,0,0,0,0,0C697,216,688,216,679,216L679,216z"/>
			<path class="st2" d="M734,216c0-9,0-18,0-26.9c9,0,18,0,27,0c0,9,0,18,0,26.9C752,216,743,216,734,216L734,216z"/>
			<path class="st3" d="M761,216c0-9,0-18,0-26.9c9,0,18,0,27,0c0,9,0,18,0,26.9c0,0,0,0,0,0C779,216,770,216,761,216L761,216z"/>
			<path class="st3" d="M816,216c0-9,0-18,0-26.9c9,0,18,0,27,0c0,9,0,17.9,0,26.9c0,0,0,0,0,0C834,216,825,216,816,216z"/>
			<path class="st2" d="M652,517c0-9,0-18,0-27l0,0c9,0,18,0,27,0l0,0c0,7.7,0.1,15.5,0.1,23.2c-2,2.1-4.4,3.7-6.9,5.2
				c-1-1.8-2.8-1.4-4.4-1.4C662.5,517,657.3,517,652,517L652,517z"/>
			<path class="st3" d="M734,517.4c0,9.2,0,18.4,0,27.6l0,0c-9.3,0-18.7,0-28,0c-0.6-5.3,1.3-10.9-1.2-16.1
				c4.6-3.5,8.9-7.4,13.8-10.4C723.3,515.5,728.9,517.5,734,517.4z"/>
			<path class="st3" d="M487.9,462c9,0,18.1,0,27.1,0c0,9.2,0,18.4,0,27.6C499.3,489.5,487.3,477.3,487.9,462z"/>
			<path class="st2" d="M843,489.6c0-9.2,0-18.4,0-27.6c9,0,18.1,0,27.1,0C870.2,477.9,859.6,488.6,843,489.6z"/>
			<path class="st3" d="M515,189.1c0,9,0,18,0,26.9c-9,0-18.1,0-27.1,0C487.7,200.9,499.4,189.2,515,189.1z"/>
			<path class="st2" d="M843,216c0-9,0-17.9,0-26.9c15.6,0.1,27.1,11.5,27.1,26.9C861.1,216,852,216,843,216z"/>
			<path class="st2" d="M898,490c0,9,0,18,0,27c0,0,0,0,0,0c-9,0-18,0-27,0c0,0,0,0,0,0c0.1-2.3,0-4.5-1.3-6.5
				c8.7-5.2,15.4-12.3,21-20.6C893.2,489.9,895.6,490,898,490L898,490z"/>
			<path class="st3" d="M487,517c-9,0-18,0-27,0c0-9,0-18,0-27c2.4,0,4.9,0,7.3-0.1c5.4,7.9,11.7,14.7,19.8,19.9
				C487,512.2,487,514.6,487,517L487,517z"/>
			<path class="st2" d="M704.8,528.9c2.5,5.2,0.5,10.7,1.2,16.1c-5.5,0-11.1,0-16.6,0c-1.6,0-3.3,0.5-4.5-1.2
				C691.5,538.8,698.2,533.9,704.8,528.9z"/>
			<path class="st3" d="M652,517c5.3,0,10.5,0,15.8,0c1.6,0,3.4-0.4,4.4,1.4c-6.4,5.4-13.1,10.3-20,15.1
				C652.1,528,652.1,522.5,652,517z"/>
			<path class="st2" d="M460,189c2.3,0,4.7,0,7,0c-2.3,5.9-5.2,11.6-6.2,17.9C458.9,201,460.5,195,460,189z"/>
			<path class="st3" d="M898,490c-2.4,0-4.8-0.1-7.3-0.1c2.4-5.2,4.6-10.4,6.3-15.9C899.1,479.2,897.5,484.7,898,490z"/>
			<path class="st2" d="M487,517c0-2.4,0-4.8,0.1-7.2c5.5,2.6,11,5,16.9,6.3C498.4,518,492.6,516.5,487,517z"/>
			<path class="st3" d="M869.7,510.5c1.3,2,1.4,4.2,1.3,6.5c-4.7-0.7-9.6,1.5-14.1-1.2C861.2,514,865.5,512.2,869.7,510.5z"/>
			<polygon class="st3" points="624.5,554 624.5,554.4 624.6,554 			"/>
			<path class="st2" d="M624.5,554C624.5,554,624.6,554,624.5,554c0.1-0.2,0.1-0.4,0.1-0.7C625.2,553.6,624.7,553.8,624.5,554z"/>
			<path class="st2" d="M515,545c0,9,0,18,0,27c-9.3,0-18.7,0-28,0c0-7.5,0.1-14.9,0-22.4c-0.1-3.4,1.3-4.7,4.7-4.7
				C499.4,545.1,507.2,545,515,545z"/>
			<path class="st2" d="M542,572c0-9,0-18,0-27c7.8,0,15.6,0.1,23.4,0c3.4-0.1,4.7,1.3,4.7,4.7c-0.1,7.5,0,14.9,0,22.4
				C560.7,572,551.3,572,542,572z"/>
			<path class="st2" d="M706,545c9.3,0,18.7,0,28,0c0,9,0,18,0,27c-9.3,0-18.7,0-28,0C706,563,706,554,706,545z"/>
			<path class="st2" d="M816,545c9,0,18,0,27,0c0,9,0,18,0,27c-9,0-18,0-27,0C816,563,816,554,816,545z"/>
			<path class="st2" d="M898,545c0,9,0,18,0,27c-9,0-18,0-27,0c0-9,0-18,0-27c0,0,0,0,0,0C880,545,889,545,898,545L898,545z"/>
			<path class="st2" d="M761,545c9,0,18,0,27,0c0,9,0,18,0,27c-9,0-18,0-27,0C761,563,761,554,761,545z"/>
			<path class="st3" d="M898,545c-9,0-18,0-27,0c0-9.3,0-18.7,0-28c9,0,18,0,27,0C898,526.3,898,535.7,898,545z"/>
			<path class="st2" d="M816,435c-9.3,0-18.7,0-28,0l0,0c0-9,0-18,0-27c9.3,0,18.7,0,28,0l0,0C816,417,816,426,816,435L816,435z"/>
			<path class="st2" d="M843,462c-9,0-18,0-27,0c0-9,0-18,0-27c0,0,0,0,0,0c9,0,18,0,27,0c0,0,0,0,0,0C843,444,843,453,843,462z"/>
			<path class="st2" d="M788,435c0,7.6-0.1,15.2,0.1,22.8c0.1,3.2-1,4.3-4.3,4.3c-7.6-0.2-15.2-0.1-22.8-0.1c0,0,0,0,0,0
				c0-9,0-18,0-27C770,435,779,435,788,435L788,435z"/>
			<path class="st2" d="M734,462c-9.3,0-18.7,0-28,0l0,0c0-9,0-18,0-27c9.3,0,18.7,0,28,0C734,444,734,453,734,462L734,462z"/>
			<path class="st2" d="M706,462c0,7.9-0.1,15.9,0.1,23.8c0.1,3.2-1,4.3-4.3,4.3c-7.6-0.2-15.2-0.1-22.8-0.1c0,0,0,0,0,0
				c0-9.3,0-18.7,0-28C688,462,697,462,706,462L706,462z"/>
			<path class="st2" d="M816,216c9,0,18,0,27,0c0,9.3,0,18.7,0,28c0,0,0,0,0,0c-9,0-18,0-27,0C816,234.7,816,225.3,816,216L816,216z
				"/>
			<path class="st2" d="M843,380c0,9.3,0,18.7,0,28c0,0,0,0,0,0c-9,0-18,0-27,0c0,0,0,0,0,0c0-9.3,0-18.7,0-28
				C825,380,834,380,843,380L843,380z"/>
			<path class="st2" d="M515,326c0-9.3,0-18.7,0-28c0,0,0,0,0,0c9,0,18,0,27,0c0,9.3,0,18.7,0,28C533,326,524,326,515,326L515,326z"
				/>
			<path class="st2" d="M570,462c-9.3,0-18.7,0-28,0c0,0,0,0,0,0c0-9,0-18,0-27l0,0c9.3,0,18.7,0,28,0C570,444,570,453,570,462
				L570,462z"/>
			<path class="st3" d="M542,435c0,9,0,18,0,27c-9,0-18,0-27,0c0-9,0-18,0-27c0,0,0,0,0,0C524,435,533,435,542,435z"/>
			<path class="st3" d="M570,462c0-9,0-18,0-27c0,0,0,0,0,0c9,0,18,0,27,0c0,9,0,18,0,27c0,0,0,0,0,0C588,462,579,462,570,462z"/>
			<path class="st2" d="M652,490c-9.2-0.1-18.5-0.2-27.7-0.3c-0.1-9.2-0.2-18.5-0.3-27.7c0,0,0,0,0,0c9.3,0,18.7,0,28,0
				C652,471.3,652,480.7,652,490L652,490z"/>
			<path class="st2" d="M597,462c0-9,0-18,0-27c0,0,0,0,0,0c9,0,18,0,27,0c0,9,0,18,0,27c0,0,0,0,0,0C615,462,606,462,597,462z"/>
			<path class="st3" d="M624,216c9.3,0,18.7,0,28,0c0,0,0,0,0,0c0,9.3,0,18.7,0,28c-9.3,0-18.7,0-28,0C624,234.7,624,225.3,624,216
				L624,216z"/>
			<path class="st2" d="M706,216c9.3,0,18.7,0,28,0c0,0,0,0,0,0c0,9.3,0,18.7,0,28c-9.3,0-18.7,0-28,0C706,234.7,706,225.3,706,216
				L706,216z"/>
			<path class="st3" d="M843,298c0,9.3,0,18.7,0,28c0,0,0,0,0,0c-9,0-18,0-27,0c0-9.3,0-18.7,0-28C825,298,834,298,843,298L843,298z
				"/>
			<path class="st3" d="M734,462c0-9,0-18,0-27l0,0c9,0,18,0,27,0l0,0c0,9,0,18,0,27C752,462,743,462,734,462z"/>
			<path class="st3" d="M816,216c0,9.3,0,18.7,0,28c0,0,0,0,0,0c-9.3,0-18.7,0-28,0c0-9.3,0-18.7,0-28c0,0,0,0,0,0
				C797.3,216,806.7,216,816,216z"/>
			<path class="st2" d="M542,435c-9,0-18,0-27,0c0-9,0-18,0-27c0,0,0,0,0,0c9,0,18,0,27,0C542,417,542,426,542,435L542,435z"/>
			<path class="st3" d="M542,408c-9,0-18,0-27,0c0-9.3,0-18.7,0-28c0,0,0,0,0,0c9,0,18,0,27,0C542,389.3,542,398.7,542,408L542,408z
				"/>
			<path class="st2" d="M542,380c-9,0-18,0-27,0c0-9,0-18,0-27c0,0,0,0,0,0c9,0,18,0,27,0C542,362,542,371,542,380L542,380z"/>
			<path class="st2" d="M542,216c9.3,0,18.7,0,28,0c0,0,0,0,0,0c0,9.3,0,18.7,0,28c-9.3,0-18.7,0-28,0l0,0
				C542,234.7,542,225.3,542,216L542,216z"/>
			<path class="st2" d="M816,326c9,0,18,0,27,0c0,9,0,18,0,27c0,0,0,0,0,0c-9,0-18,0-27,0C816,344,816,335,816,326L816,326z"/>
			<path class="st3" d="M542,216c0,9.3,0,18.7,0,28c-9,0-18,0-27,0c0,0,0,0,0,0c0-9.3,0-18.7,0-28C524,216,533,216,542,216z"/>
			<path class="st2" d="M515,244c9,0,18,0,27,0c0,0,0,0,0,0c0,9,0,18,0,27c-9,0-18,0-27,0c0,0,0,0,0,0C515,262,515,253,515,244z"/>
			<path class="st2" d="M843,298c-9,0-18,0-27,0c0,0,0,0,0,0c0-9,0-18,0-27l0,0c9,0,18,0,27,0c0,0,0,0,0,0C843,280,843,289,843,298z
				"/>
			<path class="st3" d="M816,408c9,0,18,0,27,0c0,9,0,18,0,27c-9,0-18,0-27,0C816,426,816,417,816,408z"/>
			<path class="st3" d="M843,271c-9,0-18,0-27,0c0-9,0-18,0-27c0,0,0,0,0,0c9,0,18,0,27,0C843,253,843,262,843,271z"/>
			<path class="st3" d="M542,353c-9,0-18,0-27,0c0-9,0-18,0-27c9,0,18,0,27,0c0,0,0,0,0,0C542,335,542,344,542,353L542,353z"/>
			<path class="st3" d="M515,271c9,0,18,0,27,0l0,0c0,9,0,18,0,27l0,0c-9,0-18,0-27,0C515,289,515,280,515,271z"/>
			<path class="st3" d="M570,244c0-9.3,0-18.7,0-28c9,0,18,0,27,0c0,0,0,0,0,0c0,9.3,0,18.7,0,28C588,244,579,244,570,244L570,244z"
				/>
			<path class="st3" d="M816,353c9,0,18,0,27,0c0,9,0,18,0,27c-9,0-18,0-27,0c0,0,0,0,0,0C816,371,816,362,816,353L816,353z"/>
			<path class="st2" d="M597,244c0-9.3,0-18.7,0-28c9,0,18,0,27,0c0,9.3,0,18.7,0,28c0,0,0,0,0,0C615,244,606,244,597,244L597,244z"
				/>
			<path class="st2" d="M652,244c0-9.3,0-18.7,0-28c9,0,18,0,27,0c0,0,0,0,0,0c0,9.3,0,18.7,0,28C670,244,661,244,652,244L652,244z"
				/>
			<path class="st3" d="M679,244c0-9.3,0-18.7,0-28c9,0,18,0,27,0c0,9.3,0,18.7,0,28c0,0,0,0,0,0C697,244,688,244,679,244L679,244z"
				/>
			<path class="st3" d="M734,244c0-9.3,0-18.7,0-28c9,0,18,0,27,0c0,0,0,0,0,0c0,9.3,0,18.7,0,28C752,244,743,244,734,244L734,244z"
				/>
			<path class="st2" d="M761,244c0-9.3,0-18.7,0-28c9,0,18,0,27,0c0,9.3,0,18.7,0,28c0,0,0,0,0,0C779,244,770,244,761,244L761,244z"
				/>
			<path class="st3" d="M652,490c0-9.3,0-18.7,0-28c0,0,0,0,0,0c9,0,18,0,27,0l0,0c0,9.3,0,18.7,0,28C670,490,661,490,652,490z"/>
			<path class="st3" d="M816,380c0,9.3,0,18.7,0,28c-9.3,0-18.7,0-28,0c0,0,0,0,0,0c0-9.3,0-18.7,0-28C797.3,380,806.7,380,816,380
				L816,380z"/>
			<path class="st3" d="M788,435c-9,0-18,0-27,0c0,0,0,0,0,0c0-9,0-18,0-27c9,0,18,0,27,0c0,0,0,0,0,0C788,417,788,426,788,435z"/>
			<path class="st3" d="M734,435c-9.3,0-18.7,0-28,0c0,0,0,0,0,0c0-9,0-18,0-27c9.3,0,18.7,0,28,0C734,417,734,426,734,435L734,435z
				"/>
			<path class="st3" d="M706,462c-9,0-18,0-27,0c0,0,0,0,0,0c0-9,0-18,0-27c9,0,18,0,27,0c0,0,0,0,0,0C706,444,706,453,706,462z"/>
			<path class="st3" d="M542,326c0-9.3,0-18.7,0-28c0,0,0,0,0,0c9.3,0,18.7,0,28,0c0,6.9,0,13.8,0,20.7c-6.3,0.5-12,2.4-16.3,7.3
				C549.8,326,545.9,326,542,326L542,326z"/>
			<path class="st3" d="M542,435c0-9,0-18,0-27c0,0,0,0,0,0c9.3,0,18.7,0,28,0c0,9,0,18,0,27c0,0,0,0,0,0
				C560.7,435,551.3,435,542,435z"/>
			<path class="st2" d="M570,435c0-9,0-18,0-27l0,0c9,0,18,0,27,0c0,9,0,18,0,27c0,0,0,0,0,0C588,435,579,435,570,435z"/>
			<path class="st3" d="M624,462c0-9,0-18,0-27c0,0,0,0,0,0c9.3,0,18.7,0,28,0c0,9,0,18,0,27c0,0,0,0,0,0
				C642.7,462,633.3,462,624,462z"/>
			<path class="st3" d="M597,435c0-9,0-18,0-27c0,0,0,0,0,0c9,0,18,0,27,0c0,9,0,18,0,27c0,0,0,0,0,0C615,435,606,435,597,435z"/>
			<path class="st2" d="M624,244c9.3,0,18.7,0,28,0c0,0,0,0,0,0c0,9,0,18,0,27c-9.3,0-18.7,0-28,0C624,262,624,253,624,244L624,244z
				"/>
			<path class="st3" d="M706,244c9.3,0,18.7,0,28,0c0,0,0,0,0,0c0,9,0,18,0,27c-9.3,0-18.7,0-28,0C706,262,706,253,706,244L706,244z
				"/>
			<path class="st2" d="M816,298c0,9.3,0,18.7,0,28c0,0,0,0,0,0c-3.9,0-7.8,0-11.7,0c-4.3-4.9-10-6.8-16.2-7.3c0-6.9,0-13.8,0-20.7
				C797.3,298,806.7,298,816,298L816,298z"/>
			<path class="st2" d="M734,435c0-9,0-18,0-27l0,0c9,0,18,0,27,0l0,0c0,9,0,18,0,27C752,435,743,435,734,435z"/>
			<path class="st2" d="M816,244c0,9,0,18,0,27c0,0,0,0,0,0c-9.3,0-18.7,0-28,0c0-9,0-18,0-27c0,0,0,0,0,0
				C797.3,244,806.7,244,816,244z"/>
			<path class="st2" d="M570,408c-9.3,0-18.7,0-28,0c0-9.3,0-18.7,0-28c0,0,0,0,0,0c9.3,0,18.7,0,28,0C570,389.3,570,398.7,570,408
				L570,408z"/>
			<path class="st3" d="M570,380c-9.3,0-18.7,0-28,0c0-9,0-18,0-27c0,0,0,0,0,0c4,0,8,0,12,0c4.6,4.1,9.7,7,16,7
				C570,366.7,570,373.3,570,380L570,380z"/>
			<path class="st3" d="M542,271c0-9,0-18,0-27c9.3,0,18.7,0,28,0c0,0,0,0,0,0c0,9,0,18,0,27C560.7,271,551.3,271,542,271L542,271z"
				/>
			<path class="st3" d="M804.3,326c3.9,0,7.8,0,11.7,0c0,9,0,18,0,27c0,0,0,0,0,0c-4,0-8,0-12,0C810.3,344.1,810.6,335,804.3,326z"
				/>
			<path class="st3" d="M788,271c9.3,0,18.7,0,28,0c0,9,0,18,0,27c-9.3,0-18.7,0-28,0c0,0,0,0,0,0C788,289,788,280,788,271L788,271z
				"/>
			<path class="st2" d="M554,353c-4,0-8,0-12,0c0-9,0-18,0-27c3.9,0,7.8,0,11.7,0C547.4,335.1,547.7,344.1,554,353z"/>
			<path class="st2" d="M542,271c9.3,0,18.7,0,28,0c0,0,0,0,0,0c0,9,0,18,0,27l0,0c-9.3,0-18.7,0-28,0C542,289,542,280,542,271z"/>
			<path class="st2" d="M570,271c0-9,0-18,0-27c9,0,18,0,27,0c0,0,0,0,0,0c0,9,0,18,0,27C588,271,579,271,570,271L570,271z"/>
			<path class="st2" d="M804,353c4,0,8,0,12,0c0,9,0,18,0,27c-9.3,0-18.7,0-28,0c0,0,0,0,0,0c0-6.6,0-13.3,0-19.9
				C794.3,359.9,799.5,357.2,804,353z"/>
			<path class="st3" d="M597,271c0-9,0-18,0-27c9,0,18,0,27,0c0,9,0,18,0,27c0,0,0,0,0,0C615,271,606,271,597,271L597,271z"/>
			<path class="st3" d="M652,271c0-9,0-18,0-27c9,0,18,0,27,0c0,0,0,0,0,0c0,9,0,18,0,27C670,271,661,271,652,271L652,271z"/>
			<path class="st2" d="M679,271c0-9,0-18,0-27c9,0,18,0,27,0c0,9,0,18,0,27c0,0,0,0,0,0C697,271,688,271,679,271L679,271z"/>
			<path class="st2" d="M734,271c0-9,0-18,0-27c9,0,18,0,27,0c0,0,0,0,0,0c0,9,0,18,0,27c0,0,0,0,0,0C752,271,743,271,734,271
				L734,271z"/>
			<path class="st3" d="M761,271c0-9,0-18,0-27c9,0,18,0,27,0c0,9,0,18,0,27c0,0,0,0,0,0C779,271,770,271,761,271z"/>
			<path class="st2" d="M652,462c0-9,0-18,0-27c0,0,0,0,0,0c9,0,18,0,27,0l0,0c0,9,0,18,0,27C670,462,661,462,652,462z"/>
			<path class="st2" d="M788,408c-9,0-18,0-27,0c0,0,0,0,0,0c0-9.3,0-18.7,0-28c9,0,18,0,27,0c0,0,0,0,0,0
				C788,389.3,788,398.7,788,408z"/>
			<path class="st2" d="M734,408c-9.3,0-18.7,0-28,0c0,0,0,0,0,0c0-9.3,0-18.7,0-28c9.3,0,18.7,0,28,0C734,389.3,734,398.7,734,408
				L734,408z"/>
			<path class="st2" d="M706,435c-9,0-18,0-27,0c0,0,0,0,0,0c0-9,0-18,0-27c9,0,18,0,27,0c0,0,0,0,0,0C706,417,706,426,706,435z"/>
			<path class="st4" d="M554,353c-6.3-8.9-6.6-17.9-0.3-27c4.3-4.9,10-6.9,16.3-7.3c5.9,0.7,11.2,2.7,15.2,7.3
				c6.7,10,6.6,16.5-0.3,27c-4.3,3.8-9.1,6.7-15,7C563.7,360,558.5,357.1,554,353z"/>
			<path class="st2" d="M585.3,326c-4.1-4.6-9.3-6.6-15.2-7.3c0-6.9,0-13.8,0-20.7c0,0,0,0,0,0c9,0,18,0,27,0l0,0c0,9.3,0,18.7,0,28
				C593.1,326,589.2,326,585.3,326z"/>
			<path class="st3" d="M570,408c0-9.3,0-18.7,0-28c0,0,0,0,0,0c9,0,18,0,27,0c0,9.3,0,18.7,0,28c0,0,0,0,0,0
				C588,408,579,408,570,408z"/>
			<path class="st2" d="M624,435c0-9,0-18,0-27c0,0,0,0,0,0c9.3,0,18.7,0,28,0c0,9,0,18,0,27c0,0,0,0,0,0
				C642.7,435,633.3,435,624,435z"/>
			<path class="st2" d="M597,408c0-9.3,0-18.7,0-28l0,0c9,0,18,0,27,0c0,9.3,0,18.7,0,28c0,0,0,0,0,0C615,408,606,408,597,408z"/>
			<path class="st3" d="M624,271c9.3,0,18.7,0,28,0c0,0,0,0,0,0c0,9,0,18,0,27c-9.3,0-18.7,0-28,0l0,0C624,289,624,280,624,271
				L624,271z"/>
			<path class="st2" d="M706,271c9.3,0,18.7,0,28,0c0,0,0,0,0,0c0,9,0,18,0,27c-9.3,0-18.7,0-28,0C706,289,706,280,706,271L706,271z
				"/>
			<path class="st4" d="M804,353c-4.5,4.2-9.7,6.9-16,7.1c-6.5-0.4-11.6-3.6-15.9-8.2c-5.7-8.8-5.6-17.4,0.6-25.8
				c4.1-4.6,9.4-6.6,15.3-7.4c6.3,0.5,11.9,2.4,16.2,7.3C810.6,335,810.3,344.1,804,353z"/>
			<path class="st3" d="M788,318.7c-5.9,0.7-11.3,2.7-15.3,7.4c-3.9,0-7.8,0-11.7,0c0-9.3,0-18.7,0-28l0,0c9,0,18,0,27,0
				c0,0,0,0,0,0C788,304.9,788,311.8,788,318.7z"/>
			<path class="st3" d="M734,408c0-9.3,0-18.7,0-28l0,0c9,0,18,0,27,0l0,0c0,9.3,0,18.7,0,28C752,408,743,408,734,408z"/>
			<path class="st2" d="M597,380c-9,0-18,0-27,0c0-6.7,0-13.3,0-20c5.9-0.3,10.7-3.2,15-7c4,0,8,0,12,0C597,362,597,371,597,380
				L597,380z"/>
			<path class="st2" d="M788,298c-9,0-18,0-27,0c0-9,0-18,0-27c0,0,0,0,0,0c9,0,18,0,27,0C788,280,788,289,788,298z"/>
			<path class="st3" d="M597,298c-9,0-18,0-27,0c0-9,0-18,0-27c9,0,18,0,27,0c0,0,0,0,0,0C597,280,597,289,597,298z"/>
			<path class="st3" d="M772.1,351.8c4.4,4.6,9.4,7.8,15.9,8.2c0,6.6,0,13.3,0,19.9c-9,0-18,0-27,0c0,0,0,0,0,0c0-9,0-18,0-27
				C764.7,352.4,768.6,354.3,772.1,351.8z"/>
			<path class="st2" d="M597,298c0-9,0-18,0-27c9,0,18,0,27,0c0,9,0,18,0,27C615,298,606,298,597,298L597,298z"/>
			<path class="st2" d="M652,298c0-9,0-18,0-27c9,0,18,0,27,0c0,0,0,0,0,0c0,9,0,18,0,27C670,298,661,298,652,298L652,298z"/>
			<path class="st3" d="M679,298c0-9,0-18,0-27c9,0,18,0,27,0c0,9,0,18,0,27c0,0,0,0,0,0C697,298,688,298,679,298L679,298z"/>
			<path class="st3" d="M761,271c0,9,0,18,0,27c0,0,0,0,0,0c-9,0-18,0-27,0l0,0c0-9,0-18,0-27C743,271,752,271,761,271z"/>
			<path class="st3" d="M652,435c0-9,0-18,0-27c0,0,0,0,0,0c9,0,18,0,27,0l0,0c0,9,0,18,0,27C670,435,661,435,652,435z"/>
			<path class="st3" d="M706,408c-9,0-18,0-27,0c0,0,0,0,0,0c0-9.3,0-18.7,0-28c9,0,18,0,27,0l0,0C706,389.3,706,398.7,706,408z"/>
			<path class="st3" d="M734,380c-9.3,0-18.7,0-28,0c0,0,0,0,0,0c0-9,0-18,0-27c9.3,0,18.7,0,28,0C734,362,734,371,734,380L734,380z
				"/>
			<path class="st3" d="M597,353c-4,0-8,0-12,0c6.9-10.5,6.9-17.1,0.3-27c3.9,0,7.8,0,11.7,0c0,0,0,0,0,0C597,335,597,344,597,353
				L597,353z"/>
			<path class="st3" d="M597,298c9,0,18,0,27,0c0,0,0,0,0,0c0,9.3,0,18.7,0,28c-9,0-18,0-27,0c0,0,0,0,0,0
				C597,316.7,597,307.3,597,298z"/>
			<path class="st3" d="M624,408c0-9.3,0-18.7,0-28c0,0,0,0,0,0c9.3,0,18.7,0,28,0c0,9.3,0,18.7,0,28c0,0,0,0,0,0
				C642.7,408,633.3,408,624,408z"/>
			<path class="st3" d="M597,380c0-9,0-18,0-27c0,0,0,0,0,0c9,0,18,0,27,0c0,9,0,18,0,27c0,0,0,0,0,0C615,380,606,380,597,380z"/>
			<path class="st2" d="M624,326c0-9.3,0-18.7,0-28c9.3,0,18.7,0,28,0c0,0,0,0,0,0c0,9.3,0,18.7,0,28C642.7,326,633.3,326,624,326
				L624,326z"/>
			<path class="st3" d="M706,298c9.3,0,18.7,0,28,0c0,0,0,0,0,0c0,9.3,0,18.7,0,28c-9.3,0-18.7,0-28,0C706,316.7,706,307.3,706,298
				L706,298z"/>
			<path class="st2" d="M772.1,351.8c-3.5,2.4-7.4,0.6-11.1,1.1c0,0,0,0,0,0c0-9,0-18,0-27l0,0c3.9,0,7.8,0,11.7,0
				C766.4,334.5,766.4,343.1,772.1,351.8z"/>
			<path class="st2" d="M734,326c0-9.3,0-18.7,0-28c9,0,18,0,27,0c0,9.3,0,18.7,0,28c0,0,0,0,0,0C752,326,743,326,734,326L734,326z"
				/>
			<path class="st2" d="M734,380c0-9,0-18,0-27c0,0,0,0,0,0c9,0,18,0,27,0c0,0,0,0,0,0c0,9,0,18,0,27C752,380,743,380,734,380z"/>
			<path class="st3" d="M652,326c0-9.3,0-18.7,0-28c9,0,18,0,27,0c0,0,0,0,0,0c0,6.9,0,13.8,0,20.7c-6.8,0.5-12.5,3.3-16.9,8.6
				C659,324.7,655.4,326.6,652,326L652,326z"/>
			<path class="st2" d="M679,318.7c0-6.9,0-13.8,0-20.7c9,0,18,0,27,0c0,9.3,0,18.7,0,28c0,0,0,0,0,0c-3.7,0-7.4,0-11.1,0
				C690.6,321.5,685.2,319.2,679,318.7z"/>
			<path class="st2" d="M652,408c0-9.3,0-18.7,0-28c0,0,0,0,0,0c9,0,18,0,27,0l0,0c0,9.3,0,18.7,0,28C670,408,661,408,652,408z"/>
			<path class="st2" d="M706,353c0,9,0,18,0,27c-9,0-18,0-27,0c0,0,0,0,0,0c0-6.7,0-13.3,0-20c6.2-0.2,11.2-3.2,15.7-7.2
				C698.5,352.9,702.2,353,706,353L706,353z"/>
			<path class="st2" d="M706,326c9.3,0,18.7,0,28,0c0,0,0,0,0,0c0,9,0,18,0,27c0,0,0,0,0,0c-9.3,0-18.7,0-28,0c0,0,0,0,0,0
				C706,344,706,335,706,326L706,326z"/>
			<path class="st2" d="M624,353c-9,0-18,0-27,0c0-9,0-18,0-27c9,0,18,0,27,0c0,0,0,0,0,0C624,335,624,344,624,353L624,353z"/>
			<path class="st2" d="M624,380c0-9,0-18,0-27c0,0,0,0,0,0c9.3,0,18.7,0,28,0c0,0,0,0,0,0c0,9,0,18,0,27c0,0,0,0,0,0
				C642.7,380,633.3,380,624,380z"/>
			<path class="st3" d="M652,353c-9.3,0-18.7,0-28,0c0-9,0-18,0-27c9.3,0,18.7,0,28,0c0,0,0,0,0,0C652,335,652,344,652,353z"/>
			<path class="st3" d="M734,353c0-9,0-18,0-27c9,0,18,0,27,0c0,9,0,18,0,27C752,353,743,353,734,353z"/>
			<path class="st4" d="M694.7,352.9c-4.5,4-9.4,7-15.7,7.2c-6.2-0.2-11.2-3.1-15.7-7.1c-5.8-8.3-6.3-16.8-1.2-25.7
				c4.4-5.3,10-8.1,16.9-8.6c6.2,0.5,11.5,2.9,15.9,7.4C701.1,335,700.8,344,694.7,352.9z"/>
			<path class="st2" d="M662.2,327.3c-5.1,8.8-4.6,17.4,1.2,25.7c-3.8,0-7.6,0.1-11.3,0.1c0,0,0,0,0,0c0-9,0-18,0-27
				C655.4,326.6,659,324.7,662.2,327.3z"/>
			<path class="st3" d="M694.7,352.9c6.1-8.9,6.4-17.8,0.2-26.8c3.7,0,7.4,0,11.1,0c0,9,0,18,0,27
				C702.2,353,698.5,352.9,694.7,352.9z"/>
			<path class="st3" d="M652,353c3.8,0,7.6-0.1,11.3-0.1c4.5,4,9.4,7,15.7,7.1c0,6.7,0,13.3,0,20c-9,0-18,0-27,0
				C652,371,652,362,652,353z"/>
		</g>
	</g>
</g>
<g id="Layer_2">
	<path class="st5" d="M463.8,329c0-27.3,0-54.7,0-82c0-24.3-1.8-48,16.6-66.6c19.3-19.4,46.7-16.1,71.9-16.1c28.2,0,56.3,0,84.5,0
		c58,0,115.9,0,173.9,0c25.3,0,54.2-4.1,73.9,15c19.3,18.8,17.6,42.6,17.6,67.6c0,53.1,0,106.2,0,159.3c0,12.8,0,25.6,0,38.4
		c0,12.7,1.3,26.2-3.3,38.3c-9.3,24.8-30.6,36.7-56.4,37.3c-26.6,0.6-53.2-0.3-79.8,0c-10.9,0.1-25.9-2.9-36.4-0.3
		c-11.4,2.8-24.2,16.8-33.4,23.7c-22.3,16.7-44.3,33.8-66.9,50.1c-6.4,4.6-16.4,13.4-23.1,4.1c-1.8-8.9-2-27.4-2-36.4
		c0-7.7,0-15.5,0-23.2c0-3.7,1.1-12.3-1-17.8c-3.3-2.6-16.5-0.1-21.1-0.1c-7.8,0-15.6-0.3-23.5-0.2c-27.1,0.4-56.3,4.2-76.6-17.7
		c-20.4-22-14.9-54.7-14.9-82.4C463.8,389.7,463.8,359.3,463.8,329z M628.5,557C629.7,556,628,557.5,628.5,557z M676.2,521.4
		c9.9-5.5,19.1-14,28.1-20.8c10.2-7.6,16.3-7.6,28.7-7.8c24.3-0.3,48.6-0.2,72.9-0.2c18,0,43.9,3.7,58-10.6
		c13.8-13.9,10.1-40,10.1-57.5c0-49.3,1.9-99,0.2-148.3c-0.8-20.7,5.7-48.4-2.3-67.9c-8.3-20.2-32.2-16.2-49.8-16.2
		c-97.3,0-194.7,0-292,0c-21.3,0-37.3,5.4-38.5,29.3c-1.2,24.2,0.1,48.6,0.1,72.9c0,48.7-1.1,97.4,0,146.1c0.5,20-4,47,22.3,51.8
		c12.4,2.3,26.3,0.4,38.8,0.7c13.7,0.3,27.5-0.2,41.2-0.2c6.8,0,13.6,0.1,20.3,0.1c1.8,0,7.1-0.6,9.1,0.1c5.2,1.8,4.5-0.2,4.6,6.8
		c0.1,13.8,0.2,27.7,0.1,41.5c0,2.6-1.8,13.6,1.6,14.8c2.2,0.7,12.5-8.9,14.2-10.3C654.8,537.5,665.9,530,676.2,521.4z"/>
	<path class="st5" d="M558,356c-16.2-23,16.7-48,32.4-25.2C605,352,576,372.1,558,356z"/>
	<path class="st5" d="M808,356c-18.8,17.2-48.4-6.4-31.3-27C793.9,308.4,823.2,334.6,808,356z"/>
	<path class="st5" d="M698.7,355.9c-19.1,17.1-48.8-6.4-31.4-26.8C684.7,308.7,713.5,334.2,698.7,355.9z"/>
</g>
</svg>
