<?xml version="1.0" encoding="utf-8"?>
<!-- Generator: Adobe Illustrator 21.1.0, SVG Export Plug-In . SVG Version: 6.00 Build 0)  -->
<svg version="1.1" id="Layer_2" xmlns="http://www.w3.org/2000/svg" xmlns:xlink="http://www.w3.org/1999/xlink" x="0px" y="0px"
	 viewBox="0 0 488.2 385.2" style="enable-background:new 0 0 488.2 385.2;" xml:space="preserve">
<style type="text/css">
	.st0{fill:#FFFFFF;}
</style>
<path class="st0" d="M418.1,54.1c-10,0-104.5,0.6-104.5,0.6c-5.5,0-10.7,0.6-14.3-4.3c-2-2.7-2-2.8-2.2-6.3c-0.1-2.1-0.3-4.3,0-6.3
	c0.8-7.2,5.1-10.5,12.1-10.5c0,0,73,0.1,106,0c33-0.1,47,15.9,47,40.9s0,226,0,245c0,27-13,43-35,43c-27,0-109-0.7-116-0.7
	s-14-3.3-14-9.3c0-3,0-4.6,0-8c0-9,7-10,16-10l108.8-0.1c8.2-0.1,11.8-7.3,11.8-14.9c0,0-0.6-225.9-0.6-237.9S428.1,54.1,418.1,54.1
	z"/>
<path class="st0" d="M318.6,181.6c6.5,6.6,6.5,10.6,1.5,17.6L184.8,334.6c-2.7,1.5-4.7,4.5-8.7,5.5c-5.6,1.4-10.2-1-14-4.9
	c-7-7.1-4.6-13.3,4-22.1l105.5-106.8l-233.7,0c-7.8-0.2-14.3-3.2-14.3-9.2c0-3,0-7,0-11s3.4-8.9,14.3-9l233.7-0.4L169.7,74.5
	c-4.4-4.4-10.8-8.8-12.3-15.1c-2.5-10.7,13.7-22.5,22.8-15.8c9.5,7,17.2,17.2,25.6,25.4L318.6,181.6z"/>
</svg>
